<svg width="512" height="512" viewBox="0 0 512 512" fill="none" xmlns="http://www.w3.org/2000/svg">
<rect width="512" height="512" fill="#6C4EF4"/>
<g clip-path="url(#clip0)">
<path d="M392.388 206.591C390.653 204.858 389.352 202.691 389.352 200.524C385.883 87.8375 315.195 64 256.651 64H255.783H255.35C196.805 64 126.117 87.8375 122.648 200.524C122.648 202.691 121.347 205.291 119.612 206.591C119.178 207.025 119.178 207.025 118.745 207.458C118.311 207.458 118.311 207.892 118.311 207.892C109.638 215.693 104 229.995 104 245.165C104 261.201 110.071 276.37 120.046 283.738C121.78 285.038 122.648 287.205 122.648 289.372V312.777C122.648 364.786 172.953 408.56 215.019 435.865C225.86 442.799 238.003 446.7 250.579 447.567C251.88 447.567 253.615 447.567 255.35 447.567H256.217C270.528 447.567 284.405 443.233 296.548 435.431C338.613 408.126 388.919 364.786 388.919 312.343V289.372C388.919 287.205 389.786 285.038 391.521 283.738C401.061 275.937 407.133 261.201 407.133 245.165C408 229.129 401.929 214.393 392.388 206.591ZM385.016 200.957C385.016 203.124 385.883 204.858 386.75 206.591L340.348 224.795L352.491 104.307C376.342 131.178 383.715 167.585 385.016 200.957ZM348.588 100.84V101.273L336.879 218.293L258.819 68.3341C300.884 68.7675 329.506 81.7698 348.588 100.84ZM378.944 308.876L259.686 262.068L338.18 230.429L378.944 308.876ZM257.518 75.2686L336.011 226.528V226.962L256.217 258.6L257.518 75.2686ZM256.217 265.102L374.174 311.476H256.217V265.102ZM251.447 68.3341L169.484 223.494L148.668 119.043C166.882 90.4379 198.106 69.2009 251.447 68.3341ZM169.917 231.296L247.544 261.634L128.285 309.309L169.917 231.296ZM126.984 200.957C127.852 175.386 132.622 147.648 145.198 124.244L165.147 224.795L123.515 208.325C125.683 206.591 126.984 203.558 126.984 200.957ZM122.648 280.704C113.974 273.77 108.337 260.334 108.337 245.598C108.337 232.163 113.107 219.594 120.479 212.226L166.014 229.995L126.984 303.675V289.372C126.984 285.905 125.25 282.871 122.648 280.704ZM217.621 431.964C177.723 406.393 130.02 365.652 126.984 317.544L250.146 443.233C238.87 442.366 227.595 438.465 217.621 431.964ZM250.579 437.598L131.755 316.244H251.447L250.579 437.598ZM251.447 311.476H134.357L251.88 264.668L251.447 311.476ZM251.88 259.034L172.086 227.828L253.181 74.8352L251.88 259.034ZM255.783 316.244H384.148L254.916 437.598L255.783 316.244ZM294.379 431.964C282.67 439.332 269.661 443.233 256.651 443.233H255.35L384.582 321.445C378.944 368.253 333.409 406.826 294.379 431.964ZM389.352 280.704C386.317 282.871 385.016 286.339 385.016 289.806V311.043L342.516 229.129L388.919 210.926C389.352 210.926 389.352 210.492 389.786 210.492C398.459 217.427 403.663 230.862 403.663 245.598C403.663 260.334 398.026 273.77 389.352 280.704Z" fill="white"/>
<path fill-rule="evenodd" clip-rule="evenodd" d="M334.277 103.874C322.134 93.9054 306.956 86.9709 288.742 83.5036C284.839 83.0702 282.237 86.5375 283.971 90.0047L322.134 163.251C324.302 166.718 329.94 165.851 330.374 161.517L336.011 107.774C336.011 106.041 335.578 104.741 334.277 103.874ZM231.932 140.713L191.601 216.993C190.733 219.16 191.601 222.194 193.769 223.061L233.666 238.664C236.702 239.964 239.738 237.797 239.738 234.763L240.171 142.88C240.171 138.113 234.1 136.813 231.932 140.713ZM277.466 139.847L316.93 216.127C318.231 218.294 316.93 221.327 314.762 222.194L274.431 238.23C271.829 239.097 268.793 237.364 268.793 234.33L269.227 142.014C269.227 137.246 275.298 135.946 277.466 139.847ZM329.073 247.332L303.053 257.734C299.584 259.468 299.584 264.235 303.487 265.535L342.517 281.138C345.986 282.438 349.455 278.538 347.721 275.07L334.277 249.499C333.41 247.332 331.241 246.465 329.073 247.332ZM373.307 340.515C359.429 376.488 322.134 406.826 290.91 427.196C285.272 430.664 279.201 433.697 273.13 435.431L373.307 340.515ZM222.701 428.128L222.702 428.128L222.702 428.128C225.326 429.654 228.195 431.322 231.064 432.397L146.066 345.715C143.897 343.548 140.428 345.715 142.163 348.749C157.775 380.822 191.601 408.126 221.09 427.196C221.599 427.487 222.121 427.79 222.652 428.099L222.654 428.1L222.679 428.115L222.698 428.126L222.701 428.128ZM171.218 328.379H234.967C237.135 328.379 239.304 330.113 239.304 332.713L238.436 397.291C238.436 401.192 233.666 402.926 231.064 400.325L168.182 335.747C165.58 333.147 167.315 328.379 171.218 328.379ZM342.083 328.379H272.262C270.094 328.379 267.926 330.546 267.926 332.713L267.492 399.025C267.492 402.492 272.262 404.659 274.864 402.059L345.118 335.747C347.72 333.147 345.986 328.379 342.083 328.379ZM272.696 285.039L293.512 293.273C296.982 294.574 296.114 299.341 292.211 299.341H271.395C269.661 299.341 267.926 298.041 268.36 295.874V287.639C268.36 285.472 270.528 284.172 272.696 285.039ZM239.304 296.741V287.639C239.304 285.472 237.136 284.172 235.401 285.039L212.417 294.14C209.381 295.44 210.248 299.775 213.284 299.775H236.268C238.003 299.775 239.304 298.474 239.304 296.741ZM179.458 248.199L204.177 257.734C207.646 259.034 207.646 264.235 204.177 265.969L166.014 281.138C162.111 282.438 158.642 278.538 160.376 275.07L173.386 250.366C175.121 248.199 177.289 247.332 179.458 248.199ZM120.479 245.165C120.479 256 124.382 266.402 130.02 270.736L146.066 240.397C147.367 238.23 146.499 235.196 143.897 234.33L124.382 226.528C121.78 231.729 120.479 238.23 120.479 245.165ZM152.137 213.092C141.295 208.758 133.056 203.991 133.489 202.691V201.39C133.923 184.921 136.091 169.752 139.994 156.316C140.862 153.282 145.198 153.282 146.066 156.316L156.04 209.625C156.474 211.792 154.305 213.959 152.137 213.092ZM221.524 83.9368C195.937 89.5711 176.422 101.707 162.979 119.91C162.111 120.777 162.111 122.077 162.111 122.944L172.519 174.953C172.953 178.853 178.591 179.72 180.325 176.253L226.294 90.0045C228.029 86.9706 224.993 83.07 221.524 83.9368ZM355.96 134.212C356.394 129.878 362.465 129.011 364.2 132.912C373.307 151.548 378.077 174.086 378.944 200.957V203.124L354.226 213.093C351.19 214.393 348.154 211.792 348.154 208.758L355.96 134.212ZM382.414 226.095L363.766 233.463C361.598 234.33 360.297 237.363 362.031 239.097L379.378 272.903C379.812 272.47 380.246 272.145 380.679 271.819C381.113 271.494 381.547 271.169 381.98 270.736C387.618 266.402 391.521 256 391.521 245.165C391.521 239.097 390.22 233.029 388.051 228.262C386.75 226.095 384.582 225.228 382.414 226.095Z" fill="#8469FF"/>
</g>
<defs>
<clipPath id="clip0">
<rect width="304" height="384" fill="white" transform="translate(104 64)"/>
</clipPath>
</defs>
</svg>
